# xmcd
#
# Track frame offsets: 
#        183
#        21683
#        44420
#        54458
#        93170
#        112683
#        130758
#        152208
#        166795
#        184933
#        203595
#        219245
#        242183
#        257658
#        271245
#
# Disc length: 4056 seconds
#
# Revision: 2
# Processed by: cddbd v1.5.2PL0 Copyright (c) Steve Scherf et al.
# Submitted via: ExactAudioCopyFreeDBPlugin 1.0
#
DISCID=c80fd60f
DTITLE=Various Artist - Shades of Blues
DYEAR=1996
DGENRE=Blues
TTITLE0=Through the night (Glenn Kaiser)
TTITLE1=Love that's really real (Sleepy Ray)
TTITLE2=Too many troubles (Julie Miller)
TTITLE3=Judgment blues (Bryan Haworth)
TTITLE4=Find out for yourself (Larry Howard)
TTITLE5=I'll will always love you (Greg Chaisson)
TTITLE6=How do you read it? (Buddy Greene)
TTITLE7=Woman at the well (Nicholas Giaconia)
TTITLE8=Resurrection Blues (Cornerstone)
TTITLE9=Life's no game (Nina Astrom)
TTITLE10=Taste and see (Eric Engerbretson)
TTITLE11=Ain't gonna give up on love (Trace Balin)
TTITLE12=This is the Lord's house (Darrell Mansfield)
TTITLE13=Resting in the Lord (Larry Howard)
TTITLE14=Change of heart (Phil Madeira)
EXTD=
EXTT0=from album: Spontaneous Combustion\n
EXTT1=from album: Under the mighty blood\n
EXTT2=from album: Invisible girl\n
EXTT3=from album: Slide don't fret\n
EXTT4=from album: Into the light\n
EXTT5=(for Jennifer) from album: It's about time\n
EXTT6=from album: Minstrel of the Lord\n
EXTT7=from album: Center of the earth\n
EXTT8=from album: Dust\n
EXTT9=from album: A matter of time\n
EXTT10=from album: Lead me to life\n
EXTT11=from album: Gloryroad\n
EXTT12=from album: The Lord's house\n
EXTT13=
EXTT14=
PLAYORDER=
